<svg id="svg" version="1.1" xmlns="http://www.w3.org/2000/svg" xmlns:xlink="http://www.w3.org/1999/xlink" width="400" height="400" viewBox="0, 0, 400,400"><g id="svgg"><path id="path0" d="M169.814 53.178 C 169.670 53.410,169.238 53.600,168.853 53.600 C 167.298 53.600,166.520 54.628,167.367 55.564 C 169.138 57.520,173.396 56.456,173.129 54.124 C 172.992 52.934,170.418 52.199,169.814 53.178 M156.600 57.200 C 156.464 57.420,155.818 57.600,155.164 57.600 C 154.509 57.600,153.328 57.870,152.538 58.200 C 151.749 58.530,150.595 58.800,149.975 58.800 C 149.355 58.800,148.736 58.980,148.600 59.200 C 148.464 59.420,147.745 59.600,147.002 59.600 C 146.260 59.600,145.145 59.805,144.526 60.055 C 143.907 60.305,142.770 60.623,142.000 60.761 L 140.600 61.011 140.360 64.406 C 140.229 66.273,139.994 68.364,139.839 69.053 C 139.098 72.347,143.752 73.961,146.051 71.206 C 147.214 69.814,147.624 67.509,146.800 67.000 C 145.987 66.497,146.327 62.867,147.233 62.382 C 148.644 61.627,149.614 62.885,149.533 65.362 C 149.470 67.252,149.454 67.284,149.303 65.800 C 149.134 64.133,148.261 62.800,147.338 62.800 C 146.707 62.800,146.650 63.335,147.178 64.305 C 147.386 64.687,147.668 65.693,147.804 66.540 C 148.008 67.814,148.185 68.045,148.826 67.877 C 149.688 67.652,150.039 72.081,149.200 72.600 C 148.980 72.736,148.800 73.382,148.800 74.036 C 148.800 74.691,148.530 75.872,148.200 76.662 C 147.870 77.451,147.600 78.515,147.600 79.025 C 147.600 79.535,147.420 80.064,147.200 80.200 C 145.144 81.471,148.006 87.362,152.201 90.492 C 153.300 91.313,154.740 92.548,155.400 93.237 C 158.697 96.677,167.079 98.981,169.900 97.222 C 171.729 96.082,171.637 93.956,169.561 89.400 C 168.615 87.323,168.434 83.440,169.231 82.316 C 171.521 79.088,166.547 77.457,163.110 80.309 C 162.634 80.703,162.330 80.573,161.468 79.605 C 160.886 78.952,160.002 78.334,159.505 78.232 C 159.007 78.129,157.880 77.894,157.000 77.709 L 155.400 77.373 155.282 74.695 C 155.212 73.100,155.414 71.176,155.782 69.936 C 156.122 68.791,156.400 67.375,156.400 66.789 C 156.400 65.332,157.313 63.662,158.992 62.044 C 160.489 60.602,160.937 58.297,159.920 57.280 C 159.339 56.699,156.945 56.641,156.600 57.200 M165.900 64.303 C 163.926 65.527,165.355 67.649,167.748 67.049 C 168.310 66.908,169.600 67.081,170.654 67.439 C 172.600 68.099,173.615 67.680,173.594 66.224 C 173.562 64.048,168.393 62.758,165.900 64.303 M169.067 68.667 C 168.416 69.318,168.801 71.200,169.586 71.200 C 170.476 71.200,171.373 69.827,171.043 68.969 C 170.819 68.385,169.543 68.190,169.067 68.667 M274.600 167.906 C 272.952 169.117,273.106 171.200,274.843 171.200 C 275.568 171.200,275.591 171.266,275.055 171.802 C 273.747 173.110,273.952 175.200,275.387 175.200 C 276.128 175.200,277.200 173.843,277.200 172.906 C 277.200 172.272,277.390 172.124,278.000 172.284 C 278.440 172.399,278.800 172.631,278.800 172.800 C 278.800 173.281,280.654 173.513,281.355 173.121 C 281.880 172.828,281.903 172.623,281.493 171.911 C 279.722 168.833,276.157 166.762,274.600 167.906 M284.441 171.700 C 284.136 172.635,283.742 174.120,283.565 175.000 C 282.835 178.637,282.516 179.844,282.070 180.674 C 281.812 181.154,281.600 181.914,281.600 182.362 C 281.600 183.138,280.889 184.613,279.114 187.522 C 278.079 189.218,276.788 189.145,276.329 187.365 C 275.954 185.911,273.875 183.600,272.941 183.600 C 272.582 183.600,272.075 183.308,271.814 182.951 C 270.707 181.438,267.430 184.089,267.823 186.180 C 268.017 187.216,267.829 187.884,266.960 189.252 C 265.066 192.232,260.400 201.567,260.400 202.375 C 260.400 204.600,263.613 205.220,269.698 204.171 C 271.899 203.792,272.759 204.200,271.763 205.152 C 271.343 205.552,270.384 206.582,269.631 207.440 C 268.878 208.298,266.708 210.710,264.810 212.800 C 262.911 214.890,260.737 217.312,259.979 218.182 C 251.162 228.300,250.819 228.540,248.400 226.298 C 242.775 221.086,241.661 221.054,238.228 226.005 C 234.070 232.001,234.032 232.227,236.767 234.712 C 246.588 243.633,251.382 245.714,256.355 243.214 C 256.710 243.035,257.990 242.393,259.200 241.786 C 262.865 239.948,266.501 237.433,272.600 232.518 C 273.040 232.164,274.087 231.261,274.928 230.513 C 277.588 228.143,277.736 228.414,278.259 236.605 C 278.511 240.562,278.937 246.680,279.205 250.200 C 279.885 259.139,279.536 272.368,278.556 274.800 C 276.888 278.939,276.262 279.805,274.988 279.736 C 273.546 279.658,268.545 279.037,264.200 278.397 C 254.962 277.035,242.842 278.930,234.671 283.012 C 223.557 288.565,222.312 294.009,229.965 303.598 C 232.917 307.297,241.371 314.800,242.587 314.800 C 242.713 314.800,243.533 315.253,244.410 315.806 C 250.089 319.391,253.284 320.414,256.354 319.631 C 257.149 319.428,259.600 318.967,261.800 318.606 C 267.574 317.658,269.244 317.256,274.559 315.538 C 282.764 312.886,286.710 314.256,287.114 319.900 C 287.408 324.017,285.033 325.694,277.059 326.999 C 274.990 327.338,275.266 327.479,279.011 327.995 C 292.461 329.847,312.606 329.544,317.400 327.419 C 327.128 323.105,332.549 317.753,333.868 311.162 C 333.997 310.514,334.260 309.886,334.452 309.768 C 334.643 309.650,334.800 309.050,334.800 308.436 C 334.800 307.822,334.973 306.798,335.185 306.160 C 335.556 305.038,336.017 301.490,336.811 293.639 C 337.231 289.477,336.593 285.717,333.949 276.800 C 332.733 272.698,332.547 272.844,337.320 274.160 C 341.808 275.398,346.065 274.788,347.865 272.650 C 349.029 271.266,349.016 269.521,347.790 263.200 C 347.428 261.330,346.989 258.990,346.814 258.000 C 346.640 257.010,346.189 254.760,345.811 253.000 C 345.433 251.240,344.964 248.990,344.768 248.000 C 344.572 247.010,344.128 245.030,343.780 243.600 C 343.433 242.170,342.992 240.280,342.800 239.400 C 339.784 225.571,336.771 216.883,332.711 210.304 C 331.660 208.602,330.800 207.060,330.800 206.878 C 330.800 205.363,324.358 200.383,320.379 198.821 C 319.621 198.524,318.460 198.051,317.800 197.772 C 316.184 197.088,312.057 196.122,308.400 195.570 C 302.846 194.733,303.152 194.978,305.280 193.070 C 306.304 192.151,307.269 190.950,307.423 190.400 C 307.578 189.850,308.049 188.911,308.470 188.313 L 309.235 187.227 306.660 187.467 C 302.154 187.888,300.403 186.737,298.782 182.286 C 298.283 180.919,297.724 179.629,297.538 179.420 C 297.352 179.211,297.200 178.735,297.200 178.363 C 297.200 177.211,293.740 173.761,291.509 172.690 C 284.677 169.409,285.165 169.478,284.441 171.700 M209.449 175.015 C 209.312 175.373,209.216 176.056,209.236 176.533 C 209.262 177.147,209.385 177.008,209.659 176.056 C 210.057 174.672,209.894 173.858,209.449 175.015 M293.788 178.787 C 294.732 179.829,294.686 180.949,293.575 184.033 C 291.547 189.658,292.380 192.236,296.897 194.309 C 298.169 194.893,299.162 195.467,299.103 195.585 C 293.999 205.816,290.800 214.939,290.800 219.259 C 290.800 221.853,289.866 220.628,287.812 215.338 C 286.441 211.808,286.049 210.344,285.201 205.600 C 284.985 204.390,284.626 202.771,284.404 202.003 C 284.182 201.234,284.000 200.286,284.000 199.896 C 284.000 199.182,286.563 196.400,287.220 196.400 C 290.300 196.400,291.444 190.894,288.800 188.800 C 287.264 187.583,287.200 187.441,287.200 185.217 C 287.200 179.867,291.217 175.946,293.788 178.787 M198.349 185.500 C 197.852 186.134,197.866 186.148,198.498 185.653 C 198.882 185.352,199.557 185.200,199.998 185.315 C 200.440 185.431,200.700 185.362,200.577 185.163 C 200.205 184.561,198.934 184.754,198.349 185.500 M193.473 188.300 C 193.377 188.465,194.242 191.480,195.395 195.000 L 197.491 201.400 200.046 201.653 C 201.451 201.793,206.429 201.928,211.110 201.953 L 219.620 202.000 220.009 200.978 C 220.401 199.945,219.739 197.980,218.803 197.402 C 218.581 197.265,218.400 196.258,218.400 195.164 L 218.400 193.175 220.314 195.150 C 223.204 198.133,223.475 198.052,224.849 193.800 C 225.488 191.820,225.964 189.750,225.906 189.200 L 225.800 188.200 211.883 188.095 C 203.021 188.028,197.691 188.137,197.208 188.396 C 196.701 188.667,196.366 188.669,196.201 188.401 C 195.913 187.936,193.731 187.855,193.473 188.300 M319.251 227.100 C 320.228 229.591,322.895 237.057,323.074 237.800 C 323.180 238.240,323.416 238.960,323.599 239.400 C 323.782 239.840,324.242 241.190,324.621 242.400 C 324.999 243.610,325.449 244.960,325.621 245.400 C 325.792 245.840,326.242 247.190,326.621 248.400 C 326.999 249.610,327.451 250.960,327.624 251.400 C 327.797 251.840,328.246 253.280,328.621 254.600 C 328.996 255.920,329.715 258.350,330.219 260.000 C 332.171 266.393,333.291 271.508,332.895 272.217 C 332.250 273.369,330.900 271.832,330.689 269.705 C 330.585 268.657,330.198 266.720,329.827 265.400 C 329.457 264.080,329.061 262.550,328.947 262.000 C 328.833 261.450,328.589 260.640,328.406 260.200 C 328.222 259.760,327.782 258.410,327.428 257.200 C 326.293 253.319,324.711 248.224,324.385 247.400 C 324.210 246.960,323.758 245.610,323.378 244.400 C 322.458 241.465,322.513 241.625,320.711 236.600 C 319.843 234.180,319.041 231.840,318.927 231.400 C 318.813 230.960,318.468 230.033,318.160 229.340 C 317.324 227.458,317.462 226.000,318.477 226.000 C 318.665 226.000,319.014 226.495,319.251 227.100 M56.191 315.386 C 54.980 318.235,55.137 319.483,56.965 321.540 C 57.639 322.299,70.079 330.000,70.631 330.000 C 70.715 330.000,71.733 330.603,72.892 331.340 C 75.044 332.707,77.897 334.358,80.400 335.685 C 84.684 337.955,86.367 332.367,82.354 329.200 C 82.215 329.090,81.763 328.460,81.350 327.800 C 79.654 325.090,77.511 322.427,76.876 322.241 C 76.504 322.132,75.480 321.926,74.600 321.783 C 69.277 320.921,62.666 317.355,59.244 313.500 C 58.091 312.202,57.349 312.660,56.191 315.386 M248.134 326.627 C 248.002 326.972,248.098 327.458,248.347 327.707 C 248.684 328.044,248.800 327.884,248.800 327.080 C 248.800 325.877,248.501 325.673,248.134 326.627 M260.000 328.400 C 259.532 328.702,259.643 328.789,260.500 328.794 C 261.105 328.797,261.600 328.620,261.600 328.400 C 261.600 327.894,260.783 327.894,260.000 328.400 M136.200 329.253 C 133.385 330.193,125.910 330.382,122.600 329.596 C 121.500 329.334,119.970 329.093,119.200 329.060 L 117.800 329.000 117.833 331.725 C 117.895 336.813,118.762 337.159,133.600 338.022 C 150.616 339.012,150.322 339.013,151.206 337.993 C 153.182 335.715,152.297 334.671,145.455 331.207 C 139.289 328.086,139.536 328.138,136.200 329.253 M249.200 329.153 C 249.200 329.774,250.355 330.978,250.659 330.674 C 250.781 330.552,250.502 330.047,250.040 329.551 C 249.575 329.052,249.200 328.874,249.200 329.153 M254.700 329.648 C 255.510 329.881,256.490 329.881,257.300 329.648 C 258.438 329.319,258.276 329.272,256.000 329.272 C 253.724 329.272,253.562 329.319,254.700 329.648 M254.539 333.654 C 255.068 333.961,255.402 333.958,255.719 333.641 C 256.040 333.320,255.841 333.203,254.980 333.212 C 253.946 333.223,253.891 333.277,254.539 333.654 " stroke="none" fill="#c07a72" fill-rule="evenodd"></path><path id="path1" d="M0.000 200.000 L 0.000 400.000 200.000 400.000 L 400.000 400.000 400.000 200.000 L 400.000 0.000 200.000 0.000 L 0.000 0.000 0.000 200.000 M164.261 41.229 C 166.026 42.084,166.775 42.963,170.200 48.197 C 173.519 53.269,174.029 54.364,173.482 55.240 C 173.128 55.807,173.122 56.183,173.457 56.720 C 174.851 58.951,175.038 62.991,174.017 68.760 C 173.680 70.659,173.679 72.083,174.013 74.283 C 174.539 77.755,174.077 78.925,172.018 79.336 C 171.331 79.474,170.687 79.899,170.570 80.292 C 170.454 80.681,170.098 81.510,169.780 82.132 C 169.006 83.645,169.044 87.214,169.855 89.086 C 170.970 91.660,171.145 92.158,171.408 93.500 C 172.197 97.519,168.505 99.604,163.708 97.848 C 162.879 97.544,161.444 97.068,160.519 96.790 C 158.546 96.197,156.286 94.763,154.023 92.670 C 152.225 91.005,152.120 91.107,153.017 93.647 C 154.278 97.222,154.960 101.937,155.991 114.200 C 156.624 121.733,157.198 128.201,157.587 132.200 C 157.800 134.400,158.169 138.450,158.405 141.200 C 158.642 143.950,158.901 146.755,158.982 147.434 C 159.244 149.641,158.664 149.924,156.724 148.540 C 151.671 144.935,148.424 142.938,148.022 143.186 C 147.561 143.471,147.653 143.556,151.000 145.921 C 152.971 147.314,164.515 155.265,169.400 158.595 C 171.380 159.945,175.859 162.997,179.354 165.379 L 185.708 169.708 188.354 169.210 C 194.025 168.144,202.375 169.290,207.875 171.889 C 209.769 172.785,210.077 172.824,211.412 172.341 C 213.267 171.670,213.993 172.462,214.014 175.176 C 214.022 176.179,214.276 178.034,214.578 179.299 C 215.257 182.140,215.262 182.136,210.600 182.417 C 206.855 182.643,205.132 183.416,201.069 186.689 L 199.939 187.600 212.737 187.600 C 219.775 187.600,225.819 187.709,226.167 187.843 C 227.114 188.206,227.078 188.412,224.741 195.928 C 224.351 197.183,224.417 197.338,225.943 198.748 C 227.770 200.434,228.400 201.772,228.400 203.966 C 228.400 207.873,230.982 211.915,235.800 215.552 C 236.460 216.050,238.030 217.435,239.289 218.629 C 240.549 219.823,241.832 220.800,242.141 220.800 C 242.449 220.800,242.916 221.057,243.177 221.372 C 244.004 222.369,250.310 226.800,250.901 226.800 C 251.213 226.800,251.977 226.215,252.600 225.500 C 255.327 222.370,259.080 218.155,260.000 217.190 C 260.849 216.299,263.780 212.999,266.531 209.839 C 266.932 209.378,268.275 207.942,269.515 206.650 L 271.769 204.300 269.984 204.575 C 261.033 205.958,258.468 204.565,260.934 199.658 C 263.178 195.193,263.827 193.960,265.182 191.600 C 265.876 190.390,266.545 189.085,266.669 188.700 C 266.792 188.315,267.052 188.000,267.247 188.000 C 267.737 188.000,267.691 186.251,267.189 185.749 C 266.907 185.467,267.044 184.997,267.626 184.258 L 268.474 183.179 267.007 181.556 C 266.133 180.588,265.633 179.690,265.770 179.333 C 265.897 179.004,266.000 178.576,266.000 178.382 C 266.000 178.188,267.072 176.883,268.382 175.483 C 270.621 173.089,273.116 168.667,273.829 165.829 C 273.972 165.259,274.249 164.694,274.444 164.573 C 275.229 164.088,274.663 162.936,273.076 161.783 C 270.691 160.051,270.551 156.770,272.800 155.344 C 275.308 153.754,276.709 152.416,276.975 151.356 C 277.712 148.420,279.725 147.097,283.195 147.269 C 285.346 147.376,285.611 147.294,286.411 146.277 C 290.048 141.653,294.464 141.760,299.795 146.600 C 302.805 149.332,304.239 150.213,308.662 152.044 C 319.826 156.666,323.356 163.007,319.272 171.103 C 318.439 172.755,318.038 172.603,316.800 170.168 C 313.092 162.871,309.711 159.761,303.112 157.575 C 299.723 156.452,299.413 156.327,296.243 154.805 C 293.759 153.613,289.205 150.353,288.867 149.526 C 288.717 149.159,287.200 149.072,287.200 149.431 C 287.200 150.817,295.018 156.001,299.200 157.389 C 309.467 160.796,311.804 162.743,316.374 171.700 C 316.726 172.390,317.259 172.800,317.804 172.800 C 318.467 172.800,318.784 173.168,319.137 174.346 C 320.483 178.839,318.347 182.598,312.932 185.263 C 310.311 186.554,309.016 187.901,307.806 190.600 C 307.411 191.480,306.627 192.596,306.064 193.079 L 305.039 193.959 306.145 194.379 C 306.754 194.611,307.778 194.800,308.421 194.800 C 316.846 194.800,328.539 201.379,332.334 208.254 C 333.047 209.544,334.252 211.680,335.014 213.000 C 337.178 216.753,339.694 223.759,340.976 229.600 C 341.507 232.020,342.781 237.022,343.575 239.800 C 343.763 240.460,344.218 242.440,344.586 244.200 C 344.954 245.960,345.413 248.030,345.607 248.800 C 345.923 250.060,346.593 253.313,347.585 258.400 C 347.778 259.390,348.230 261.910,348.589 264.000 C 348.949 266.090,349.389 268.479,349.568 269.309 C 349.747 270.139,349.762 270.900,349.600 271.000 C 349.439 271.100,349.298 274.920,349.287 279.491 C 349.276 284.061,349.070 289.600,348.829 291.800 C 348.128 298.195,348.093 310.260,348.768 312.400 C 349.649 315.190,352.127 318.428,355.200 320.803 C 356.190 321.568,357.060 322.330,357.133 322.497 C 357.207 322.664,357.522 322.800,357.833 322.800 C 358.617 322.800,358.547 323.858,357.744 324.166 C 357.383 324.305,356.754 324.312,356.347 324.183 C 355.049 323.771,354.668 324.408,355.612 325.413 C 357.403 327.319,354.764 327.914,352.209 326.180 C 350.665 325.132,349.909 325.126,350.774 326.168 C 352.325 328.037,350.462 329.114,348.326 327.584 L 347.252 326.814 347.126 327.904 C 346.944 329.478,345.768 329.520,344.208 328.008 C 343.073 326.908,342.362 325.691,340.290 321.300 C 339.696 320.042,338.773 320.177,337.254 321.744 C 335.575 323.477,333.405 324.162,331.557 323.544 C 329.002 322.690,328.673 323.221,337.150 314.522 L 339.700 311.905 339.414 309.853 C 339.257 308.724,338.987 306.450,338.814 304.800 C 338.641 303.150,338.259 300.180,337.963 298.200 L 337.427 294.600 337.135 297.600 C 335.784 311.510,333.195 317.518,325.884 323.708 C 324.368 324.991,320.124 327.200,319.173 327.200 C 318.337 327.200,318.043 328.932,318.800 329.400 C 319.614 329.903,319.245 332.618,318.233 333.569 C 317.247 334.495,314.800 334.477,314.800 333.545 C 314.800 333.329,314.620 333.264,314.400 333.400 C 314.180 333.536,314.000 334.164,314.000 334.797 C 314.000 336.186,313.002 336.621,310.865 336.161 C 310.059 335.987,308.770 335.797,308.000 335.738 C 304.684 335.482,300.844 334.849,298.800 334.222 C 297.590 333.850,296.240 333.436,295.800 333.302 C 295.360 333.168,293.489 332.190,291.643 331.129 C 288.389 329.259,288.185 329.200,285.043 329.198 C 283.259 329.196,280.720 329.014,279.400 328.792 C 276.191 328.252,273.090 328.226,272.160 328.731 C 271.742 328.957,270.560 329.525,269.532 329.991 C 267.241 331.033,264.062 333.290,261.626 335.605 C 258.755 338.335,254.334 339.166,252.334 337.352 C 251.820 336.886,250.861 336.377,250.202 336.220 C 248.674 335.857,248.000 335.292,248.000 334.373 C 248.000 333.972,247.522 333.409,246.937 333.122 C 245.862 332.594,245.636 332.288,244.851 330.300 C 244.528 329.480,244.143 329.200,243.340 329.200 C 241.152 329.200,239.844 326.099,241.383 324.560 C 242.060 323.883,244.946 322.800,246.072 322.800 C 246.496 322.800,247.505 322.350,248.314 321.800 C 249.123 321.250,250.142 320.800,250.579 320.800 C 251.857 320.800,250.678 319.906,246.679 317.843 C 233.486 311.035,222.559 298.054,224.473 291.462 C 225.582 287.645,230.505 283.892,239.000 280.387 C 245.824 277.572,255.637 276.596,264.800 277.823 C 277.030 279.460,276.091 279.683,277.778 274.736 L 278.824 271.672 278.659 259.936 C 278.501 248.611,277.432 230.893,276.872 230.322 C 276.722 230.170,275.430 231.033,274.000 232.240 C 265.463 239.449,255.533 245.201,251.629 245.200 C 248.207 245.199,234.000 234.760,234.000 232.247 C 234.000 231.374,233.251 230.077,231.902 228.612 C 231.071 227.709,225.379 218.579,224.192 216.243 C 223.756 215.386,222.552 213.748,221.515 212.603 C 219.633 210.524,219.048 210.215,214.000 208.630 C 210.974 207.680,206.175 205.345,203.946 203.737 C 202.573 202.746,201.673 202.400,200.472 202.400 C 197.270 202.400,197.211 202.323,194.812 194.974 C 192.826 188.890,192.686 188.233,193.294 187.849 C 194.168 187.298,189.219 182.400,187.788 182.400 C 186.933 182.400,183.499 181.476,181.800 180.789 C 179.421 179.828,178.329 179.637,177.644 180.065 C 176.916 180.520,172.963 178.384,163.311 172.318 C 161.283 171.043,159.541 170.000,159.442 170.000 C 159.342 170.000,157.085 168.650,154.426 167.000 C 151.767 165.350,149.473 164.000,149.327 164.000 C 149.182 164.000,148.779 163.748,148.431 163.440 C 147.417 162.539,143.951 160.715,143.711 160.955 C 143.591 161.076,143.431 161.856,143.357 162.687 C 143.214 164.293,142.389 168.927,141.307 174.200 C 140.030 180.428,140.237 214.935,141.621 226.400 C 142.362 232.537,143.301 237.760,144.101 240.200 L 144.888 242.600 142.285 245.000 L 139.681 247.400 140.122 250.200 C 140.709 253.927,140.699 259.457,140.095 265.800 C 139.356 273.549,138.423 283.656,138.010 288.400 C 137.808 290.710,137.358 295.570,137.010 299.200 C 136.661 302.830,136.212 307.780,136.013 310.200 C 135.159 320.539,135.080 320.800,132.786 320.800 C 131.242 320.800,131.200 320.837,131.200 322.193 L 131.200 323.586 140.900 328.368 C 151.588 333.638,152.400 334.187,152.400 336.154 C 152.400 338.989,151.679 339.258,144.536 339.088 C 135.291 338.869,121.860 337.982,121.420 337.563 C 121.211 337.363,120.747 337.200,120.390 337.200 C 119.597 337.200,118.326 335.859,117.419 334.066 C 116.833 332.908,116.781 331.942,117.028 326.766 L 117.312 320.800 116.356 320.794 C 114.243 320.780,114.352 322.287,114.133 290.157 C 113.965 265.570,113.827 259.974,113.364 258.940 C 113.054 258.246,112.800 257.391,112.800 257.040 C 112.800 254.921,107.647 261.278,106.036 265.383 C 105.946 265.612,104.972 267.240,103.871 269.000 C 101.805 272.302,93.246 286.453,92.000 288.626 C 91.613 289.301,90.305 291.461,89.092 293.426 C 87.880 295.392,86.463 297.741,85.944 298.647 C 77.861 312.748,77.413 313.261,74.130 312.203 C 70.714 311.101,73.441 317.989,78.156 322.370 C 78.730 322.903,79.200 323.484,79.200 323.661 C 79.200 323.942,83.040 329.466,83.606 330.000 C 85.663 331.940,85.691 335.358,83.660 336.540 C 82.176 337.404,81.525 337.204,77.400 334.611 C 76.520 334.058,75.530 333.484,75.200 333.335 C 74.870 333.186,73.700 332.499,72.600 331.808 C 71.500 331.117,70.330 330.425,70.000 330.270 C 69.670 330.116,68.500 329.442,67.400 328.773 C 66.300 328.105,65.085 327.456,64.700 327.332 C 64.315 327.208,64.000 326.969,64.000 326.800 C 64.000 326.631,63.685 326.388,63.300 326.258 C 62.915 326.129,62.240 325.793,61.801 325.512 C 61.361 325.230,59.898 324.301,58.550 323.447 C 55.944 321.797,54.800 320.126,54.800 317.967 C 54.800 316.694,55.146 315.895,58.106 310.329 C 60.009 306.749,60.024 306.280,58.243 305.943 C 56.636 305.639,56.667 304.733,58.412 301.000 C 61.120 295.207,62.636 291.937,63.602 289.800 C 64.599 287.593,65.993 284.561,68.107 280.000 C 68.872 278.350,69.904 276.100,70.400 275.000 C 70.896 273.900,72.069 271.380,73.005 269.400 C 73.941 267.420,75.112 264.900,75.607 263.800 C 76.101 262.700,77.045 260.630,77.704 259.200 C 80.580 252.962,81.106 251.682,81.620 249.674 C 82.219 247.335,81.948 246.819,80.114 246.806 C 78.515 246.795,78.400 245.823,78.404 232.326 C 78.410 211.869,79.394 195.797,81.584 180.400 C 82.636 173.001,83.260 168.783,83.596 166.800 C 83.801 165.590,84.172 163.340,84.420 161.800 C 84.668 160.260,85.108 157.920,85.398 156.600 C 85.688 155.280,86.233 152.760,86.611 151.000 C 90.635 132.226,97.741 112.055,107.097 92.843 C 111.385 84.038,120.865 78.420,134.906 76.362 C 138.491 75.836,139.840 74.636,139.670 72.126 C 139.620 71.397,139.586 70.395,139.593 69.900 C 139.949 45.445,139.889 45.604,149.800 43.040 C 152.000 42.471,155.060 41.657,156.600 41.231 C 160.265 40.218,162.170 40.217,164.261 41.229 M147.488 164.041 C 148.320 164.503,149.284 165.133,149.631 165.441 C 149.979 165.748,150.382 166.000,150.528 166.000 C 150.674 166.000,153.112 167.445,155.946 169.212 L 161.100 172.424 161.383 174.512 C 161.856 178.003,162.470 185.957,162.609 190.397 L 162.741 194.593 164.468 196.797 C 172.717 207.322,177.856 218.902,174.100 218.505 C 173.323 218.422,173.200 218.597,173.200 219.781 C 173.200 222.416,171.945 221.693,164.845 214.960 C 160.534 210.872,159.356 210.006,158.100 210.003 C 157.029 209.999,157.035 209.946,157.826 212.364 C 159.797 218.391,156.743 220.127,154.594 214.200 C 154.355 213.540,153.249 211.740,152.137 210.200 C 148.969 205.815,148.487 203.467,149.222 196.000 C 149.254 195.670,149.007 193.690,148.672 191.600 C 148.337 189.510,147.584 184.110,146.999 179.600 C 146.414 175.090,145.697 169.690,145.407 167.600 C 144.726 162.706,144.815 162.555,147.488 164.041 M330.493 264.400 C 330.493 265.170,330.575 265.485,330.676 265.100 C 330.776 264.715,330.776 264.085,330.676 263.700 C 330.575 263.315,330.493 263.630,330.493 264.400 M331.301 268.200 C 331.305 269.080,331.387 269.393,331.483 268.895 C 331.579 268.398,331.575 267.678,331.475 267.295 C 331.375 266.913,331.296 267.320,331.301 268.200 " stroke="none" fill="#fbfbfb" fill-rule="evenodd"></path><path id="path2" d="M140.128 64.400 C 140.128 65.830,140.201 66.415,140.289 65.700 C 140.378 64.985,140.378 63.815,140.289 63.100 C 140.201 62.385,140.128 62.970,140.128 64.400 M168.893 86.000 C 168.893 86.770,168.975 87.085,169.076 86.700 C 169.176 86.315,169.176 85.685,169.076 85.300 C 168.975 84.915,168.893 85.230,168.893 86.000 M118.685 87.754 C 110.237 90.377,108.069 109.871,114.626 124.260 C 114.942 124.954,115.200 125.642,115.200 125.790 C 115.200 128.463,129.182 151.089,132.653 154.034 C 134.061 155.229,141.799 159.867,144.870 161.357 C 146.559 162.176,148.156 163.106,148.419 163.423 C 148.683 163.740,149.054 164.000,149.245 164.000 C 149.436 164.000,151.767 165.350,154.426 167.000 C 157.085 168.650,159.342 170.000,159.442 170.000 C 159.541 170.000,161.283 171.043,163.311 172.318 C 169.093 175.951,176.718 180.400,177.165 180.400 C 177.388 180.400,179.112 178.338,180.996 175.817 C 182.879 173.297,184.596 171.126,184.810 170.994 C 185.961 170.283,184.980 169.158,180.700 166.281 C 171.442 160.056,152.404 146.965,148.485 144.128 C 147.883 143.692,147.725 143.370,148.022 143.186 C 148.424 142.938,151.671 144.935,156.724 148.540 C 158.664 149.924,159.244 149.641,158.982 147.434 C 158.901 146.755,158.642 143.950,158.405 141.200 C 158.169 138.450,157.800 134.400,157.587 132.200 C 157.065 126.837,156.447 119.632,156.014 113.862 C 155.578 108.064,155.529 108.003,154.609 112.107 C 154.203 113.918,153.732 115.760,153.563 116.200 C 152.851 118.046,150.815 126.154,149.395 132.800 C 149.042 134.450,148.584 136.451,148.377 137.246 C 148.170 138.042,148.000 139.156,148.000 139.723 C 148.000 142.489,147.099 141.132,144.996 135.200 C 144.412 133.550,143.741 131.660,143.507 131.000 C 143.272 130.340,142.854 129.260,142.579 128.600 C 142.056 127.348,141.039 124.540,136.968 113.100 C 136.400 111.505,135.792 109.840,135.616 109.400 C 134.275 106.047,132.704 101.707,131.000 96.643 C 128.507 89.233,124.120 86.067,118.685 87.754 M170.014 90.454 C 170.006 90.594,170.263 91.314,170.584 92.054 C 170.906 92.794,171.169 93.130,171.170 92.800 C 171.172 92.224,170.043 89.934,170.014 90.454 M289.341 143.988 C 288.209 144.638,286.890 145.668,286.411 146.277 C 285.611 147.294,285.346 147.376,283.195 147.269 C 279.725 147.097,277.712 148.420,276.975 151.356 C 276.709 152.417,275.302 153.760,272.800 155.342 C 269.461 157.453,270.869 161.162,275.880 163.454 C 277.045 163.987,278.583 164.927,279.299 165.543 C 281.245 167.220,285.118 170.000,285.508 170.000 C 285.836 170.000,286.904 170.479,291.509 172.690 C 293.740 173.761,297.200 177.211,297.200 178.363 C 297.200 178.735,297.352 179.211,297.538 179.420 C 297.724 179.629,298.283 180.919,298.782 182.286 C 300.405 186.743,302.152 187.888,306.682 187.465 C 308.939 187.254,309.215 187.300,308.791 187.811 C 308.522 188.135,308.433 188.400,308.593 188.400 C 308.754 188.400,309.215 187.980,309.619 187.466 C 310.023 186.953,311.500 185.968,312.900 185.279 C 318.348 182.597,320.486 178.849,319.137 174.346 C 318.784 173.168,318.467 172.800,317.804 172.800 C 317.259 172.800,316.726 172.390,316.374 171.700 C 311.804 162.743,309.467 160.796,299.200 157.389 C 295.018 156.001,287.200 150.817,287.200 149.431 C 287.200 149.072,288.717 149.159,288.867 149.526 C 289.205 150.353,293.759 153.613,296.243 154.805 C 299.413 156.327,299.723 156.452,303.112 157.575 C 309.711 159.761,313.092 162.871,316.800 170.168 C 318.038 172.603,318.439 172.755,319.272 171.103 C 323.356 163.007,319.826 156.666,308.662 152.044 C 304.239 150.213,302.805 149.332,299.795 146.600 C 295.146 142.379,293.057 141.857,289.341 143.988 M145.063 163.500 C 144.961 163.665,145.116 165.510,145.407 167.600 C 145.697 169.690,146.414 175.090,146.999 179.600 C 149.280 197.173,148.842 195.622,151.400 195.189 C 156.179 194.379,159.121 193.971,160.800 193.882 L 162.600 193.788 162.588 190.594 C 162.576 187.217,162.246 182.716,161.542 176.316 L 161.114 172.432 155.953 169.216 C 153.115 167.447,150.674 166.000,150.528 166.000 C 150.382 166.000,149.979 165.748,149.631 165.441 C 147.999 163.994,145.430 162.903,145.063 163.500 M210.662 172.649 C 209.798 173.117,209.578 173.471,209.746 174.117 C 210.139 175.618,208.413 181.200,207.556 181.200 C 207.411 181.200,207.211 181.515,207.110 181.900 C 206.944 182.534,207.249 182.587,210.363 182.457 C 215.142 182.259,215.264 182.168,214.579 179.305 C 214.276 178.037,214.022 176.223,214.014 175.274 C 213.988 172.153,213.002 171.381,210.662 172.649 M192.931 182.583 C 191.573 182.812,190.323 183.140,190.153 183.312 C 189.732 183.736,194.368 188.000,195.249 188.000 C 195.636 188.000,196.064 188.180,196.201 188.401 C 196.366 188.669,196.697 188.669,197.198 188.401 C 197.610 188.180,198.321 188.000,198.777 188.000 C 199.569 188.000,202.177 186.044,201.838 185.705 C 201.340 185.207,199.100 185.224,198.376 185.732 C 196.921 186.751,196.000 186.149,196.000 184.177 C 196.000 182.069,195.993 182.066,192.931 182.583 M105.200 195.155 C 105.200 195.439,104.660 196.837,104.000 198.263 C 103.340 199.689,102.800 201.026,102.800 201.233 C 102.800 201.441,102.631 201.923,102.425 202.305 C 101.298 204.392,97.924 214.811,95.983 222.200 C 94.022 229.661,91.825 242.282,91.625 247.224 C 91.539 249.349,90.670 249.386,83.861 247.558 C 83.015 247.330,82.285 247.202,82.239 247.272 C 82.193 247.343,81.912 248.390,81.616 249.600 C 81.106 251.676,80.601 252.916,77.704 259.200 C 77.045 260.630,76.101 262.700,75.607 263.800 C 75.112 264.900,73.941 267.420,73.005 269.400 C 72.069 271.380,70.896 273.900,70.400 275.000 C 69.904 276.100,68.872 278.350,68.107 280.000 C 65.993 284.561,64.599 287.593,63.602 289.800 C 62.636 291.936,61.112 295.225,58.429 300.963 C 56.730 304.598,56.637 305.443,57.891 305.845 C 58.281 305.970,58.960 306.216,59.400 306.392 C 59.840 306.567,62.720 307.659,65.800 308.818 C 68.880 309.976,71.760 311.116,72.200 311.350 C 73.542 312.065,75.754 312.788,76.618 312.794 C 77.370 312.800,80.907 307.433,85.944 298.647 C 86.463 297.741,87.880 295.392,89.092 293.426 C 90.305 291.461,91.613 289.301,92.000 288.626 C 93.246 286.453,101.805 272.302,103.871 269.000 C 104.972 267.240,105.946 265.612,106.036 265.383 C 107.647 261.278,112.800 254.921,112.800 257.040 C 112.800 257.391,113.054 258.246,113.364 258.940 C 113.827 259.974,113.965 265.567,114.133 290.135 C 114.245 306.599,114.436 320.169,114.557 320.290 C 115.143 320.876,134.479 320.599,134.785 320.000 C 135.138 319.307,135.499 316.426,136.013 310.200 C 136.212 307.780,136.661 302.830,137.010 299.200 C 137.358 295.570,137.808 290.710,138.010 288.400 C 138.423 283.656,139.356 273.549,140.095 265.800 C 140.827 258.121,140.730 252.880,139.769 248.110 L 139.590 247.219 138.095 248.070 C 128.219 253.687,117.047 255.897,106.887 254.245 C 105.064 253.949,103.444 253.578,103.287 253.420 C 102.767 252.901,102.965 220.574,103.524 214.600 C 104.213 207.244,105.092 200.313,105.669 197.687 C 106.023 196.078,106.023 195.463,105.667 195.107 C 105.311 194.751,105.200 194.762,105.200 195.155 M263.907 205.090 C 264.626 205.179,265.706 205.177,266.307 205.086 C 266.908 204.995,266.320 204.922,265.000 204.924 C 263.680 204.926,263.188 205.001,263.907 205.090 " stroke="none" fill="#afbbe8" fill-rule="evenodd"></path><path id="path3" d="M153.600 42.047 C 150.410 42.917,147.257 43.728,146.593 43.851 C 141.744 44.748,138.681 52.012,139.845 59.857 C 140.187 62.164,140.196 62.130,140.442 57.600 C 140.943 48.348,143.275 44.400,148.238 44.400 C 148.961 44.400,149.658 44.230,149.786 44.023 C 149.914 43.816,150.827 43.525,151.814 43.377 C 152.802 43.229,153.708 42.948,153.829 42.754 C 153.949 42.559,154.721 42.400,155.544 42.400 C 156.367 42.400,157.230 42.210,157.463 41.977 C 159.124 40.316,164.908 41.503,166.229 43.777 C 166.620 44.449,167.043 45.090,167.170 45.200 C 167.564 45.543,168.412 46.967,168.658 47.700 C 168.788 48.085,169.052 48.400,169.247 48.400 C 169.441 48.400,169.600 48.627,169.600 48.904 C 169.600 49.181,170.050 49.893,170.600 50.487 C 171.150 51.080,171.600 51.732,171.600 51.936 C 171.600 52.140,171.973 52.404,172.429 52.523 C 173.212 52.728,173.223 52.692,172.627 51.870 C 172.280 51.392,171.142 49.682,170.098 48.070 C 164.616 39.610,163.731 39.287,153.600 42.047 M172.802 56.051 C 172.801 56.409,173.085 57.386,173.434 58.221 C 174.070 59.741,174.052 63.260,173.373 70.225 C 173.243 71.559,173.305 73.578,173.511 74.713 C 173.979 77.286,173.502 78.345,171.600 78.953 C 170.443 79.322,170.186 79.608,170.122 80.600 C 170.049 81.716,170.064 81.730,170.338 80.800 C 170.533 80.138,171.094 79.649,171.999 79.353 C 174.191 78.636,174.539 77.759,174.013 74.286 C 173.679 72.083,173.680 70.660,174.017 68.760 C 174.816 64.248,174.918 61.960,174.421 59.737 C 173.904 57.427,172.807 54.928,172.802 56.051 M139.760 72.126 C 139.760 74.682,138.426 75.845,134.906 76.362 C 120.865 78.420,111.385 84.038,107.097 92.843 C 99.557 108.326,93.920 123.140,89.762 138.400 C 88.438 143.262,87.261 147.964,86.611 151.000 C 86.233 152.760,85.688 155.280,85.398 156.600 C 85.108 157.920,84.668 160.260,84.420 161.800 C 84.172 163.340,83.801 165.590,83.596 166.800 C 83.260 168.783,82.636 173.001,81.584 180.400 C 79.394 195.797,78.410 211.869,78.404 232.326 C 78.400 245.423,78.541 246.800,79.889 246.800 C 80.500 246.800,81.753 247.075,88.200 248.625 C 90.751 249.238,91.557 248.909,91.625 247.224 C 91.825 242.282,94.022 229.661,95.983 222.200 C 97.924 214.811,101.298 204.392,102.425 202.305 C 102.631 201.923,102.800 201.441,102.800 201.233 C 102.800 201.026,103.340 199.689,104.000 198.263 C 104.660 196.837,105.200 195.439,105.200 195.155 C 105.200 194.762,105.311 194.751,105.667 195.107 C 106.023 195.463,106.023 196.078,105.669 197.687 C 105.092 200.313,104.213 207.244,103.524 214.600 C 102.965 220.574,102.767 252.901,103.287 253.420 C 103.805 253.938,110.134 254.784,113.554 254.792 C 120.214 254.808,128.764 252.847,134.400 250.011 C 138.867 247.763,140.007 247.028,142.421 244.838 L 144.889 242.600 144.101 240.200 C 143.301 237.760,142.362 232.539,141.621 226.400 C 140.237 214.935,140.030 180.428,141.307 174.200 C 142.368 169.026,143.204 164.320,143.376 162.547 L 143.536 160.895 138.136 157.575 C 132.351 154.020,132.076 153.751,127.052 146.735 C 122.527 140.417,115.200 127.466,115.200 125.786 C 115.200 125.640,114.942 124.954,114.626 124.260 C 111.387 117.152,109.800 104.111,111.405 97.784 C 114.837 84.246,126.599 83.561,131.000 96.643 C 132.704 101.707,134.275 106.047,135.616 109.400 C 135.792 109.840,136.400 111.505,136.968 113.100 C 141.039 124.540,142.056 127.348,142.579 128.600 C 142.854 129.260,143.272 130.340,143.507 131.000 C 143.741 131.660,144.412 133.550,144.996 135.200 C 147.099 141.132,148.000 142.489,148.000 139.723 C 148.000 139.156,148.170 138.042,148.377 137.246 C 148.584 136.451,149.042 134.450,149.395 132.800 C 150.782 126.308,152.700 118.654,153.605 116.000 C 155.761 109.671,155.525 100.757,153.013 93.636 C 152.349 91.755,152.213 90.737,152.714 91.400 C 152.881 91.620,153.733 92.429,154.608 93.197 C 155.909 94.339,155.837 94.211,154.215 92.497 C 151.600 89.734,151.349 89.799,151.095 93.300 C 150.792 97.483,150.064 100.400,149.324 100.400 C 147.285 100.400,140.771 91.224,138.391 85.000 C 136.169 79.192,136.159 78.747,138.196 76.362 C 139.970 74.283,140.858 71.898,140.130 71.170 C 139.903 70.943,139.760 71.313,139.760 72.126 M169.280 82.480 C 169.016 82.744,168.825 83.419,168.854 83.980 L 168.909 85.000 169.093 84.000 C 169.194 83.450,169.461 82.775,169.687 82.500 C 170.211 81.862,169.913 81.847,169.280 82.480 M165.700 98.287 C 166.305 98.378,167.295 98.378,167.900 98.287 C 168.505 98.195,168.010 98.120,166.800 98.120 C 165.590 98.120,165.095 98.195,165.700 98.287 M274.294 164.803 C 273.912 165.684,273.600 166.493,273.600 166.601 C 273.600 167.841,270.340 173.389,268.382 175.483 C 267.072 176.883,266.000 178.188,266.000 178.382 C 266.000 178.576,265.897 179.004,265.770 179.333 C 265.633 179.690,266.132 180.586,267.003 181.551 C 267.870 182.510,268.346 183.364,268.171 183.647 C 267.985 183.948,268.047 184.018,268.338 183.838 C 269.097 183.369,268.870 182.616,267.600 181.400 C 265.851 179.725,266.055 178.839,268.906 175.732 C 270.961 173.492,271.768 172.172,273.387 168.400 C 274.472 165.870,275.549 163.668,275.780 163.506 C 276.039 163.325,275.967 163.210,275.594 163.206 C 275.261 163.203,274.676 163.921,274.294 164.803 M187.300 169.319 C 185.178 169.750,184.264 170.544,186.300 170.187 C 194.383 168.770,205.523 170.183,208.576 173.013 C 209.287 173.672,209.601 173.773,209.748 173.391 C 210.081 172.524,205.140 170.416,200.709 169.535 C 197.722 168.941,189.789 168.813,187.300 169.319 M178.655 179.001 C 178.433 179.580,179.709 180.400,180.831 180.400 C 181.040 180.400,181.523 180.563,181.905 180.763 C 182.956 181.313,186.788 182.400,187.672 182.400 C 188.101 182.400,188.773 182.572,189.166 182.782 C 189.575 183.001,190.373 183.024,191.039 182.835 L 192.200 182.508 190.800 182.275 C 190.030 182.147,188.662 181.945,187.760 181.826 C 185.411 181.516,179.882 179.626,179.347 178.950 C 178.957 178.456,178.861 178.463,178.655 179.001 M205.281 183.049 C 204.555 183.620,203.295 184.421,202.481 184.828 C 201.492 185.322,201.254 185.573,201.765 185.584 C 202.572 185.601,206.004 183.560,206.818 182.578 C 207.587 181.652,206.714 181.919,205.281 183.049 M192.962 188.155 C 192.845 188.460,193.729 191.645,194.926 195.232 C 197.287 202.306,197.299 202.323,200.346 202.372 C 201.662 202.393,202.550 202.730,203.946 203.737 C 206.175 205.345,210.974 207.680,214.000 208.630 C 219.048 210.215,219.633 210.524,221.515 212.603 C 222.552 213.748,223.756 215.386,224.192 216.243 C 225.379 218.579,231.071 227.709,231.902 228.612 C 233.251 230.077,234.000 231.374,234.000 232.247 C 234.000 234.760,248.207 245.199,251.629 245.200 C 255.533 245.201,265.463 239.449,274.000 232.240 C 275.430 231.033,276.722 230.170,276.872 230.322 C 277.432 230.893,278.501 248.611,278.659 259.936 L 278.824 271.672 277.778 274.736 C 276.091 279.683,277.030 279.460,264.800 277.823 C 255.637 276.596,245.824 277.572,239.000 280.387 C 230.505 283.892,225.582 287.645,224.473 291.462 C 222.559 298.054,233.486 311.035,246.679 317.843 C 250.678 319.906,251.857 320.800,250.579 320.800 C 250.142 320.800,249.123 321.250,248.314 321.800 C 247.505 322.350,246.496 322.800,246.072 322.800 C 244.946 322.800,242.060 323.883,241.383 324.560 C 239.844 326.099,241.152 329.200,243.340 329.200 C 244.143 329.200,244.528 329.480,244.851 330.300 C 245.636 332.288,245.862 332.594,246.937 333.122 C 247.522 333.409,248.000 333.972,248.000 334.373 C 248.000 335.292,248.674 335.857,250.202 336.220 C 250.861 336.377,251.820 336.886,252.334 337.352 C 254.334 339.166,258.755 338.335,261.626 335.605 C 264.062 333.290,267.241 331.033,269.532 329.991 C 270.560 329.525,271.742 328.957,272.160 328.731 C 273.090 328.226,276.191 328.252,279.400 328.792 C 280.720 329.014,283.259 329.196,285.043 329.198 C 288.185 329.200,288.389 329.259,291.643 331.129 C 293.489 332.190,295.360 333.168,295.800 333.302 C 296.240 333.436,297.590 333.850,298.800 334.222 C 300.844 334.849,304.684 335.482,308.000 335.738 C 308.770 335.797,310.059 335.987,310.865 336.161 C 313.002 336.621,314.000 336.186,314.000 334.797 C 314.000 334.164,314.180 333.536,314.400 333.400 C 314.620 333.264,314.800 333.329,314.800 333.545 C 314.800 334.477,317.247 334.495,318.233 333.569 C 319.245 332.618,319.614 329.903,318.800 329.400 C 318.043 328.932,318.337 327.200,319.173 327.200 C 323.374 327.200,331.586 319.332,333.993 313.000 C 335.343 309.451,336.567 303.452,337.135 297.600 L 337.427 294.600 337.963 298.200 C 338.259 300.180,338.641 303.150,338.814 304.800 C 338.987 306.450,339.257 308.724,339.414 309.853 L 339.700 311.905 337.150 314.522 C 328.673 323.221,329.002 322.690,331.557 323.544 C 333.405 324.162,335.575 323.477,337.254 321.744 C 338.773 320.177,339.696 320.042,340.290 321.300 C 342.362 325.691,343.073 326.908,344.208 328.008 C 345.768 329.520,346.944 329.478,347.126 327.904 L 347.252 326.814 348.326 327.584 C 350.462 329.114,352.325 328.037,350.774 326.168 C 349.909 325.126,350.665 325.132,352.209 326.180 C 354.764 327.914,357.403 327.319,355.612 325.413 C 354.668 324.408,355.049 323.771,356.347 324.183 C 356.754 324.312,357.383 324.305,357.744 324.166 C 358.547 323.858,358.617 322.800,357.833 322.800 C 357.522 322.800,357.207 322.664,357.133 322.497 C 357.060 322.330,356.190 321.568,355.200 320.803 C 348.384 315.534,346.946 308.988,348.829 291.800 C 349.070 289.600,349.276 284.061,349.287 279.491 C 349.298 274.920,349.439 271.100,349.600 271.000 C 349.762 270.900,349.747 270.139,349.568 269.309 C 349.389 268.479,348.949 266.090,348.589 264.000 C 348.230 261.910,347.778 259.390,347.585 258.400 C 346.593 253.313,345.923 250.060,345.607 248.800 C 345.413 248.030,344.954 245.960,344.586 244.200 C 344.218 242.440,343.763 240.460,343.575 239.800 C 342.781 237.022,341.507 232.020,340.976 229.600 C 339.694 223.759,337.178 216.753,335.014 213.000 C 334.252 211.680,333.047 209.544,332.334 208.254 C 328.539 201.379,316.846 194.800,308.421 194.800 C 306.697 194.800,305.094 194.100,305.445 193.501 C 305.606 193.225,305.326 193.360,304.822 193.800 L 303.907 194.600 305.454 194.871 C 306.304 195.020,308.260 195.349,309.800 195.601 C 312.897 196.108,316.623 197.067,317.695 197.633 C 318.077 197.835,318.582 198.000,318.819 198.000 C 322.067 198.000,328.756 203.471,332.024 208.800 C 336.390 215.920,338.256 220.556,340.395 229.600 C 340.577 230.370,341.017 232.080,341.374 233.400 C 342.480 237.501,342.738 238.513,343.408 241.400 C 343.765 242.940,344.209 244.830,344.394 245.600 C 344.954 247.928,346.312 254.611,347.400 260.400 C 347.752 262.270,348.231 264.671,348.466 265.736 C 348.984 268.088,348.932 285.599,348.397 289.000 C 347.741 293.164,347.708 311.674,348.354 313.034 C 348.658 313.675,349.084 314.587,349.299 315.059 C 349.990 316.571,353.305 320.079,355.733 321.866 C 358.211 323.691,357.894 324.192,354.938 323.123 C 353.063 322.445,352.874 322.961,354.333 324.777 C 356.706 327.730,354.344 327.498,350.993 324.448 C 348.920 322.561,348.650 322.900,350.000 325.694 C 351.399 328.590,350.374 328.943,347.954 326.400 C 347.117 325.520,346.335 324.800,346.216 324.800 C 345.836 324.800,345.985 327.224,346.414 328.026 C 346.724 328.605,346.699 328.798,346.314 328.791 C 345.050 328.769,342.819 325.929,341.610 322.800 C 340.371 319.597,339.018 319.234,336.712 321.486 C 335.237 322.927,331.537 323.671,330.585 322.718 C 330.324 322.458,333.091 319.365,337.500 314.988 C 340.279 312.229,340.523 311.196,339.630 305.967 C 339.426 304.775,338.961 301.640,338.595 299.000 C 337.458 290.783,337.319 290.770,336.428 298.800 C 334.893 312.644,332.452 317.895,324.723 323.974 C 323.820 324.685,320.303 326.419,318.700 326.945 C 317.885 327.213,317.804 328.401,318.475 330.257 C 319.358 332.699,317.382 334.736,315.394 333.433 C 313.963 332.495,313.600 332.648,313.600 334.192 C 313.600 335.797,312.344 336.426,310.796 335.598 C 310.312 335.339,308.450 335.056,306.658 334.968 C 301.226 334.703,297.102 333.488,291.738 330.573 C 288.731 328.938,288.248 328.799,285.538 328.790 C 283.922 328.785,281.835 328.604,280.899 328.388 C 273.971 326.789,265.753 329.828,260.441 335.953 C 258.765 337.886,254.010 338.410,252.436 336.836 C 252.040 336.440,251.196 335.985,250.560 335.826 C 249.051 335.447,248.400 334.879,248.400 333.941 C 248.400 333.495,247.981 333.021,247.389 332.796 C 246.327 332.392,245.562 330.976,245.911 330.060 C 246.185 329.340,245.283 328.814,243.762 328.806 C 242.191 328.798,241.098 327.633,241.270 326.148 C 241.413 324.913,242.264 324.360,245.200 323.593 C 246.190 323.334,247.270 322.965,247.600 322.772 C 248.497 322.249,250.505 321.317,251.300 321.055 C 252.560 320.641,252.047 320.114,248.700 318.380 C 231.773 309.610,221.044 295.727,226.086 289.114 C 233.306 279.645,253.460 275.615,273.600 279.612 C 278.977 280.680,280.979 266.420,278.571 244.200 C 278.261 241.340,278.006 237.720,278.004 236.156 C 277.994 229.074,277.519 228.519,274.031 231.519 C 263.773 240.342,254.878 245.104,250.268 244.239 C 249.134 244.026,243.818 241.166,243.200 240.436 C 243.090 240.306,242.100 239.485,241.000 238.611 C 237.163 235.562,234.400 232.707,234.400 231.791 C 234.400 231.304,233.704 230.026,232.853 228.952 C 231.270 226.955,226.036 218.640,224.599 215.843 C 222.536 211.823,219.699 209.651,214.600 208.185 C 211.258 207.225,206.700 205.089,204.417 203.412 C 202.830 202.248,202.148 202.000,200.523 202.000 C 197.780 202.000,197.492 201.646,195.643 196.000 C 194.743 193.250,193.829 190.474,193.612 189.831 C 193.339 189.023,193.353 188.497,193.658 188.131 C 193.980 187.742,193.975 187.600,193.636 187.600 C 193.383 187.600,193.079 187.850,192.962 188.155 M213.000 187.992 L 226.200 188.200 226.081 189.400 C 226.015 190.060,225.766 191.101,225.527 191.713 C 225.288 192.325,225.194 192.928,225.319 193.052 C 225.546 193.279,226.800 189.483,226.800 188.570 C 226.800 187.675,225.585 187.600,212.667 187.692 L 199.800 187.784 213.000 187.992 M224.500 195.167 C 223.782 197.492,223.849 197.790,225.344 198.930 C 227.104 200.272,228.000 202.241,228.000 204.765 C 228.000 208.676,230.013 211.422,237.526 217.763 C 239.327 219.282,240.800 220.677,240.800 220.863 C 240.800 221.048,241.044 221.200,241.341 221.200 C 241.639 221.200,243.802 222.622,246.147 224.361 C 248.877 226.384,250.662 227.450,251.106 227.322 C 251.488 227.212,255.528 222.954,260.084 217.861 C 264.640 212.767,269.179 207.700,270.171 206.600 C 272.231 204.314,272.352 203.982,271.100 204.046 C 270.412 204.082,270.367 204.136,270.907 204.277 C 271.481 204.427,271.204 204.889,269.437 206.731 C 268.240 207.979,266.932 209.378,266.531 209.839 C 263.780 212.999,260.849 216.299,260.000 217.190 C 259.080 218.155,255.327 222.370,252.600 225.500 C 251.977 226.215,251.213 226.800,250.901 226.800 C 250.310 226.800,244.004 222.369,243.177 221.372 C 242.916 221.057,242.449 220.800,242.141 220.800 C 241.832 220.800,240.549 219.823,239.289 218.629 C 238.030 217.435,236.460 216.050,235.800 215.552 C 230.982 211.915,228.400 207.873,228.400 203.966 C 228.400 201.767,227.770 200.434,225.926 198.731 C 224.375 197.300,224.317 197.165,224.782 196.044 C 225.051 195.394,225.210 194.567,225.135 194.205 C 225.060 193.839,224.778 194.265,224.500 195.167 M162.000 194.240 C 162.000 194.460,162.861 195.711,163.913 197.020 C 170.028 204.628,174.835 213.411,174.222 215.854 C 174.098 216.347,174.181 216.864,174.405 217.003 C 175.134 217.454,174.340 218.072,173.350 217.823 C 172.425 217.591,172.398 217.644,172.645 219.191 C 173.042 221.677,171.746 220.856,165.084 214.405 C 158.602 208.127,155.525 207.485,157.400 212.800 C 159.021 217.395,157.150 219.286,155.421 214.800 C 155.039 213.810,153.959 211.920,153.020 210.600 C 149.661 205.876,148.685 202.071,149.708 197.700 C 150.361 194.909,150.303 194.653,149.410 196.380 C 147.747 199.597,148.974 205.801,152.142 210.200 C 153.252 211.740,154.355 213.540,154.594 214.200 C 156.743 220.127,159.797 218.391,157.826 212.364 C 157.035 209.946,157.029 209.999,158.100 210.003 C 159.356 210.006,160.534 210.872,164.845 214.960 C 171.945 221.693,173.200 222.416,173.200 219.781 C 173.200 218.597,173.323 218.422,174.100 218.505 C 178.204 218.939,170.467 202.945,162.353 194.220 C 162.131 193.981,162.000 193.988,162.000 194.240 M317.798 226.404 C 317.544 226.814,317.772 227.958,318.396 229.400 C 318.587 229.840,319.488 232.450,320.400 235.200 C 321.312 237.950,322.209 240.560,322.395 241.000 C 322.580 241.440,323.042 242.790,323.421 244.000 C 323.799 245.210,324.246 246.560,324.413 247.000 C 324.668 247.673,325.430 250.083,328.398 259.600 C 328.570 260.150,329.020 261.770,329.400 263.200 C 329.780 264.630,330.239 266.250,330.421 266.800 C 330.603 267.350,330.868 268.732,331.009 269.870 C 331.244 271.759,332.063 272.870,332.730 272.204 C 332.941 271.992,332.236 267.751,331.599 265.400 C 331.123 263.644,329.954 259.555,329.597 258.400 C 329.427 257.850,328.799 255.780,328.202 253.800 C 327.605 251.820,326.865 249.609,326.558 248.886 C 326.251 248.164,326.000 247.307,326.000 246.981 C 326.000 246.655,325.842 246.077,325.648 245.695 C 325.455 245.313,324.990 244.010,324.614 242.800 C 324.239 241.590,323.778 240.240,323.590 239.800 C 323.403 239.360,322.705 237.380,322.041 235.400 C 321.376 233.420,320.375 230.559,319.816 229.041 C 319.257 227.524,318.800 226.219,318.800 226.141 C 318.800 225.826,318.030 226.028,317.798 226.404 M330.676 265.100 C 330.575 265.485,330.493 265.170,330.493 264.400 C 330.493 263.630,330.575 263.315,330.676 263.700 C 330.776 264.085,330.776 264.715,330.676 265.100 M331.483 268.895 C 331.387 269.393,331.305 269.080,331.301 268.200 C 331.296 267.320,331.375 266.913,331.475 267.295 C 331.575 267.678,331.579 268.398,331.483 268.895 M59.761 307.262 C 59.427 307.803,57.111 312.187,55.748 314.858 C 53.916 318.448,54.765 321.051,58.550 323.447 C 59.898 324.301,61.361 325.230,61.801 325.512 C 62.240 325.793,62.915 326.129,63.300 326.258 C 63.685 326.388,64.000 326.631,64.000 326.800 C 64.000 326.969,64.315 327.208,64.700 327.332 C 65.085 327.456,66.300 328.105,67.400 328.773 C 68.500 329.442,69.670 330.116,70.000 330.270 C 70.330 330.425,71.500 331.117,72.600 331.808 C 73.700 332.499,74.870 333.186,75.200 333.335 C 75.530 333.484,76.520 334.058,77.400 334.611 C 82.162 337.604,84.873 337.663,85.066 334.780 C 85.118 334.002,85.093 333.974,84.945 334.643 C 84.262 337.741,82.410 337.120,69.200 329.368 C 55.598 321.387,55.200 321.062,55.200 317.942 C 55.200 316.501,59.464 308.257,60.705 307.300 C 61.302 306.839,61.301 306.800,60.700 306.800 C 60.341 306.800,59.919 307.008,59.761 307.262 M71.990 313.030 C 71.477 314.584,72.981 317.307,76.613 321.401 C 78.291 323.293,84.583 331.936,84.910 332.800 C 85.059 333.194,85.148 333.223,85.168 332.886 C 85.196 332.430,84.168 330.530,83.606 330.000 C 83.040 329.466,79.200 323.942,79.200 323.661 C 79.200 323.484,78.730 322.903,78.156 322.370 C 75.140 319.567,72.000 314.361,72.611 313.178 C 72.942 312.539,73.038 311.947,72.831 311.819 C 72.629 311.695,72.251 312.239,71.990 313.030 M121.300 320.697 C 123.005 320.772,125.795 320.772,127.500 320.697 C 129.205 320.622,127.810 320.561,124.400 320.561 C 120.990 320.561,119.595 320.622,121.300 320.697 M117.028 326.766 C 116.781 331.942,116.833 332.908,117.419 334.066 C 118.273 335.755,119.585 337.200,120.264 337.200 C 120.552 337.200,120.116 336.584,119.294 335.831 L 117.800 334.461 117.800 327.631 C 117.800 319.210,117.408 318.771,117.028 326.766 M130.867 322.310 L 130.800 324.019 136.300 326.634 C 150.864 333.560,152.000 334.252,152.000 336.200 C 152.000 338.676,151.168 338.957,144.701 338.665 C 133.123 338.142,124.551 337.635,122.800 337.370 C 121.564 337.183,121.125 337.227,121.400 337.511 C 121.847 337.973,134.819 338.858,144.536 339.088 C 151.679 339.258,152.400 338.989,152.400 336.154 C 152.400 334.188,151.588 333.637,140.924 328.380 L 131.249 323.610 131.092 322.105 L 130.934 320.600 130.867 322.310 " stroke="none" fill="#fbd3ac" fill-rule="evenodd"></path><path id="path4" d="M158.600 41.485 C 158.160 41.591,157.629 41.840,157.420 42.039 C 157.211 42.237,156.367 42.400,155.544 42.400 C 154.721 42.400,153.949 42.559,153.829 42.754 C 153.708 42.948,152.802 43.229,151.814 43.377 C 150.827 43.525,149.914 43.816,149.786 44.023 C 149.658 44.230,148.961 44.400,148.238 44.400 C 143.368 44.400,140.872 48.490,140.518 57.051 L 140.350 61.102 141.875 60.802 C 142.714 60.637,143.907 60.299,144.526 60.051 C 145.145 59.803,146.260 59.600,147.002 59.600 C 147.745 59.600,148.464 59.420,148.600 59.200 C 148.736 58.980,149.355 58.800,149.975 58.800 C 150.595 58.800,151.749 58.530,152.538 58.200 C 153.328 57.870,154.509 57.600,155.164 57.600 C 155.818 57.600,156.464 57.420,156.600 57.200 C 156.945 56.641,159.339 56.699,159.920 57.280 C 160.937 58.297,160.489 60.602,158.992 62.044 C 157.313 63.662,156.400 65.332,156.400 66.789 C 156.400 67.375,156.122 68.791,155.782 69.936 C 155.414 71.176,155.212 73.100,155.282 74.695 L 155.400 77.373 157.000 77.709 C 157.880 77.894,159.007 78.129,159.505 78.232 C 160.002 78.334,160.886 78.952,161.468 79.605 C 162.330 80.573,162.634 80.703,163.110 80.309 C 164.727 78.966,168.371 78.401,169.174 79.368 C 169.576 79.853,169.804 79.856,170.723 79.389 C 171.315 79.087,172.119 78.746,172.510 78.629 C 173.563 78.315,173.912 76.917,173.502 74.659 C 173.301 73.554,173.242 71.559,173.371 70.225 C 174.072 62.989,174.078 59.994,173.396 58.093 L 172.716 56.200 170.448 56.331 C 167.661 56.492,165.900 55.247,167.382 54.164 C 167.806 53.854,168.468 53.600,168.853 53.600 C 169.238 53.600,169.664 53.420,169.800 53.200 C 169.936 52.980,170.712 52.779,171.524 52.754 C 172.336 52.728,172.685 52.625,172.300 52.524 C 171.915 52.424,171.600 52.167,171.600 51.953 C 171.600 51.740,171.150 51.080,170.600 50.487 C 170.050 49.893,169.600 49.181,169.600 48.904 C 169.600 48.627,169.441 48.400,169.247 48.400 C 169.052 48.400,168.788 48.085,168.658 47.700 C 168.412 46.967,167.564 45.543,167.170 45.200 C 167.043 45.090,166.620 44.449,166.229 43.777 C 165.065 41.773,161.658 40.750,158.600 41.485 M147.100 62.432 C 146.317 62.888,146.077 66.553,146.800 67.000 C 149.480 68.657,144.529 73.721,141.639 72.279 C 140.483 71.702,140.468 71.709,140.231 72.978 C 140.098 73.683,139.183 75.205,138.196 76.362 C 136.159 78.747,136.169 79.192,138.391 85.000 C 140.771 91.224,147.285 100.400,149.324 100.400 C 150.064 100.400,150.792 97.483,151.095 93.300 C 151.218 91.601,151.486 90.400,151.742 90.400 C 151.982 90.400,151.734 90.089,151.192 89.709 C 148.049 87.508,145.438 81.289,147.200 80.200 C 147.420 80.064,147.600 79.535,147.600 79.025 C 147.600 78.515,147.870 77.451,148.200 76.662 C 148.530 75.872,148.800 74.691,148.800 74.036 C 148.800 73.382,148.980 72.736,149.200 72.600 C 150.039 72.081,149.688 67.652,148.826 67.877 C 148.185 68.045,148.008 67.814,147.804 66.540 C 147.668 65.693,147.386 64.687,147.178 64.305 C 146.650 63.335,146.707 62.800,147.338 62.800 C 148.261 62.800,149.134 64.133,149.303 65.800 C 149.454 67.284,149.470 67.252,149.533 65.362 C 149.619 62.737,148.628 61.542,147.100 62.432 M171.914 64.291 C 174.851 66.159,173.898 68.540,170.654 67.439 C 169.600 67.081,168.310 66.908,167.748 67.049 C 166.533 67.354,164.800 66.517,164.800 65.625 C 164.800 63.846,169.754 62.917,171.914 64.291 M171.043 68.969 C 171.373 69.827,170.476 71.200,169.586 71.200 C 168.801 71.200,168.416 69.318,169.067 68.667 C 169.543 68.190,170.819 68.385,171.043 68.969 M273.421 168.275 C 271.768 172.196,271.027 173.421,268.921 175.716 C 266.055 178.839,265.849 179.723,267.600 181.400 C 268.260 182.032,268.800 182.778,268.800 183.056 C 268.800 183.427,269.128 183.380,270.020 182.881 C 271.173 182.237,271.268 182.238,271.764 182.900 C 272.052 183.285,272.582 183.600,272.941 183.600 C 273.875 183.600,275.954 185.911,276.329 187.365 C 277.108 190.386,280.843 186.675,281.729 182.000 C 281.834 181.450,282.106 180.460,282.335 179.800 C 282.564 179.140,282.924 177.880,283.135 177.000 C 283.346 176.120,283.730 174.590,283.989 173.600 C 284.958 169.879,284.954 169.792,283.735 169.000 C 283.111 168.593,281.428 167.316,279.995 166.162 C 275.753 162.745,275.753 162.745,273.421 168.275 M277.795 168.225 C 280.111 169.324,282.433 172.518,281.355 173.121 C 280.654 173.513,278.800 173.281,278.800 172.800 C 278.800 172.631,278.440 172.399,278.000 172.284 C 277.390 172.124,277.200 172.272,277.200 172.906 C 277.200 173.843,276.128 175.200,275.387 175.200 C 273.952 175.200,273.747 173.110,275.055 171.802 C 275.591 171.266,275.568 171.200,274.843 171.200 C 273.702 171.200,272.978 169.761,273.672 168.874 C 274.829 167.396,275.745 167.252,277.795 168.225 M189.251 169.776 C 185.248 170.264,185.618 170.054,182.858 173.400 C 180.817 175.874,179.145 178.480,179.315 178.923 C 179.728 179.999,189.837 182.629,192.600 182.379 C 196.066 182.065,196.199 182.110,196.215 183.600 C 196.239 185.833,197.172 186.667,198.340 185.500 C 198.616 185.225,199.687 184.996,200.720 184.992 C 206.072 184.968,211.904 176.097,208.588 173.024 C 207.385 171.909,202.876 170.443,199.273 169.994 C 194.088 169.348,192.964 169.324,189.251 169.776 M289.702 178.614 C 286.837 180.620,286.289 186.811,288.800 188.800 C 291.444 190.894,290.300 196.400,287.220 196.400 C 286.563 196.400,284.000 199.182,284.000 199.896 C 284.000 200.286,284.182 201.234,284.404 202.003 C 284.626 202.771,284.985 204.390,285.201 205.600 C 286.049 210.344,286.441 211.808,287.812 215.338 C 289.866 220.628,290.800 221.853,290.800 219.259 C 290.800 214.939,293.999 205.816,299.103 195.585 C 299.162 195.467,298.169 194.893,296.897 194.309 C 292.380 192.236,291.547 189.658,293.575 184.033 C 295.338 179.139,293.208 176.158,289.702 178.614 M218.400 195.164 C 218.400 196.258,218.581 197.265,218.803 197.402 C 219.739 197.980,220.401 199.945,220.009 200.978 L 219.620 202.000 211.110 202.002 L 202.600 202.004 203.800 203.000 C 205.607 204.499,210.778 207.017,214.074 208.002 C 219.806 209.715,222.474 211.702,224.599 215.843 C 226.034 218.637,231.262 226.959,232.686 228.714 C 233.451 229.657,234.216 230.917,234.386 231.514 L 234.696 232.600 235.008 231.400 C 235.717 228.669,240.897 221.952,242.162 222.123 C 243.222 222.266,243.259 222.232,242.585 221.740 C 242.179 221.443,241.611 221.200,241.324 221.200 C 241.036 221.200,240.800 221.048,240.800 220.863 C 240.800 220.677,239.327 219.282,237.526 217.763 C 230.054 211.457,228.000 208.668,228.000 204.830 C 228.000 201.653,225.378 197.697,222.985 197.263 C 222.569 197.187,221.367 196.237,220.314 195.150 L 218.400 193.175 218.400 195.164 M156.200 194.429 C 155.320 194.612,153.614 194.906,152.408 195.081 L 150.216 195.400 149.673 197.800 C 148.702 202.096,149.707 205.940,153.020 210.600 C 153.959 211.920,155.039 213.810,155.421 214.800 C 157.150 219.286,159.021 217.395,157.400 212.800 C 155.525 207.485,158.602 208.127,165.084 214.405 C 171.746 220.856,173.042 221.677,172.645 219.191 C 172.398 217.644,172.425 217.591,173.350 217.823 C 174.340 218.072,175.134 217.454,174.405 217.003 C 174.181 216.864,174.098 216.347,174.222 215.854 C 174.682 214.024,171.277 206.969,167.326 201.566 C 161.079 193.024,161.538 193.318,156.200 194.429 M199.305 201.887 C 199.914 201.979,200.814 201.977,201.305 201.882 C 201.797 201.787,201.300 201.711,200.200 201.714 C 199.100 201.717,198.697 201.795,199.305 201.887 M256.975 221.300 L 255.800 222.600 257.100 221.425 C 257.815 220.779,258.400 220.194,258.400 220.125 C 258.400 219.816,258.070 220.088,256.975 221.300 M276.877 229.448 C 277.249 229.559,277.625 230.133,277.714 230.725 C 277.859 231.697,277.871 231.686,277.837 230.603 C 277.810 229.715,277.594 229.386,277.000 229.326 C 276.421 229.268,276.387 229.302,276.877 229.448 M278.120 238.400 C 278.120 239.610,278.195 240.105,278.287 239.500 C 278.378 238.895,278.378 237.905,278.287 237.300 C 278.195 236.695,278.120 237.190,278.120 238.400 M279.320 254.800 C 279.320 256.010,279.395 256.505,279.487 255.900 C 279.578 255.295,279.578 254.305,279.487 253.700 C 279.395 253.095,279.320 253.590,279.320 254.800 M279.320 268.000 C 279.320 269.210,279.395 269.705,279.487 269.100 C 279.578 268.495,279.578 267.505,279.487 266.900 C 279.395 266.295,279.320 266.790,279.320 268.000 M347.729 272.804 C 346.089 274.786,341.674 275.361,337.320 274.160 C 332.547 272.844,332.733 272.698,333.949 276.800 C 336.107 284.078,337.249 289.774,337.020 292.109 C 336.881 293.524,336.923 293.877,337.150 293.200 L 337.485 292.200 337.708 293.200 C 337.831 293.750,338.230 296.360,338.595 299.000 C 338.961 301.640,339.426 304.775,339.630 305.967 C 340.523 311.196,340.279 312.229,337.500 314.988 C 333.091 319.365,330.324 322.458,330.585 322.718 C 331.537 323.671,335.237 322.927,336.712 321.486 C 339.018 319.234,340.371 319.597,341.610 322.800 C 342.819 325.929,345.050 328.769,346.314 328.791 C 346.699 328.798,346.724 328.605,346.414 328.026 C 345.985 327.224,345.836 324.800,346.216 324.800 C 346.335 324.800,347.117 325.520,347.954 326.400 C 350.374 328.943,351.399 328.590,350.000 325.694 C 348.650 322.900,348.920 322.561,350.993 324.448 C 354.344 327.498,356.706 327.730,354.333 324.777 C 352.874 322.961,353.063 322.445,354.938 323.123 C 357.894 324.192,358.211 323.691,355.733 321.866 C 353.251 320.039,349.996 316.574,349.246 314.959 C 349.001 314.432,348.575 313.520,348.300 312.934 C 347.673 311.596,347.755 294.430,348.416 288.800 C 348.661 286.710,348.803 282.019,348.731 278.376 L 348.600 271.751 347.729 272.804 M224.909 293.200 C 224.909 294.190,224.987 294.595,225.082 294.100 C 225.178 293.605,225.178 292.795,225.082 292.300 C 224.987 291.805,224.909 292.210,224.909 293.200 M59.846 308.186 C 59.491 308.728,59.200 309.272,59.200 309.394 C 59.200 309.516,58.748 310.332,58.195 311.208 C 57.297 312.630,57.266 312.800,57.906 312.800 C 58.300 312.800,58.902 313.115,59.244 313.500 C 61.773 316.349,67.656 320.033,71.200 320.988 C 72.572 321.358,77.200 322.292,77.200 322.200 C 77.200 322.158,76.749 321.601,76.199 320.962 C 72.980 317.227,71.490 314.491,71.952 313.166 C 72.584 311.352,72.601 311.381,70.500 310.625 C 69.455 310.250,67.880 309.664,67.000 309.323 C 66.120 308.983,65.040 308.568,64.600 308.402 C 64.160 308.236,63.297 307.897,62.681 307.650 C 61.051 306.994,60.567 307.086,59.846 308.186 M274.400 315.564 C 269.270 317.250,267.590 317.655,261.800 318.606 C 259.600 318.967,257.149 319.428,256.354 319.631 C 254.442 320.119,252.551 320.098,251.474 319.578 C 250.653 319.181,250.645 319.192,251.340 319.751 C 252.162 320.412,251.920 321.184,250.876 321.229 C 250.504 321.245,249.660 321.603,249.000 322.025 C 247.558 322.946,247.479 322.978,245.200 323.584 C 242.252 324.369,241.413 324.916,241.270 326.148 C 241.098 327.633,242.191 328.798,243.762 328.806 C 245.283 328.814,246.185 329.340,245.911 330.060 C 245.562 330.976,246.327 332.392,247.389 332.796 C 247.981 333.021,248.400 333.495,248.400 333.941 C 248.400 334.879,249.051 335.447,250.560 335.826 C 251.196 335.985,252.040 336.440,252.436 336.836 C 254.010 338.410,258.765 337.886,260.441 335.953 C 263.914 331.949,271.356 327.876,275.200 327.876 C 277.026 327.876,277.443 327.796,276.600 327.605 L 275.400 327.333 277.000 327.040 C 285.314 325.517,287.410 324.038,287.114 319.900 C 286.709 314.249,282.633 312.858,274.400 315.564 M117.843 321.433 C 117.709 321.781,117.600 323.626,117.600 325.533 L 117.600 329.000 119.100 329.051 C 119.925 329.080,121.500 329.320,122.600 329.585 C 126.103 330.430,133.002 330.229,136.493 329.180 L 139.540 328.265 135.170 326.133 L 130.800 324.001 130.800 322.400 L 130.800 320.800 124.443 320.800 C 119.015 320.800,118.050 320.892,117.843 321.433 M248.800 327.080 C 248.800 327.884,248.684 328.044,248.347 327.707 C 248.098 327.458,248.002 326.972,248.134 326.627 C 248.501 325.673,248.800 325.877,248.800 327.080 M317.389 327.339 C 315.400 328.696,294.432 330.013,290.000 329.059 C 288.849 328.811,289.097 329.044,291.400 330.371 C 296.399 333.253,301.207 334.702,306.658 334.968 C 308.450 335.056,310.312 335.339,310.796 335.598 C 312.344 336.426,313.600 335.797,313.600 334.192 C 313.600 332.648,313.963 332.495,315.394 333.433 C 317.482 334.801,319.306 332.746,318.411 330.033 C 318.125 329.167,317.989 328.086,318.108 327.629 C 318.365 326.647,318.388 326.657,317.389 327.339 M261.600 328.400 C 261.600 328.620,261.105 328.797,260.500 328.794 C 259.643 328.789,259.532 328.702,260.000 328.400 C 260.783 327.894,261.600 327.894,261.600 328.400 M250.659 330.674 C 250.355 330.978,249.200 329.774,249.200 329.153 C 249.200 328.874,249.575 329.052,250.040 329.551 C 250.502 330.047,250.781 330.552,250.659 330.674 M257.300 329.648 C 256.490 329.881,255.510 329.881,254.700 329.648 C 253.562 329.319,253.724 329.272,256.000 329.272 C 258.276 329.272,258.438 329.319,257.300 329.648 M255.719 333.641 C 255.402 333.958,255.068 333.961,254.539 333.654 C 253.891 333.277,253.946 333.223,254.980 333.212 C 255.841 333.203,256.040 333.320,255.719 333.641 " stroke="none" fill="#f8a481" fill-rule="evenodd"></path></g></svg>